<?xml version="1.0" standalone="no"?>
<!DOCTYPE svg PUBLIC "-//W3C//DTD SVG 20010904//EN"
 "http://www.w3.org/TR/2001/REC-SVG-20010904/DTD/svg10.dtd">
<svg version="1.0" xmlns="http://www.w3.org/2000/svg"
 width="512.000000pt" height="512.000000pt" viewBox="0 0 512.000000 512.000000"
 preserveAspectRatio="xMidYMid meet">
<metadata>
Created by potrace 1.14, written by Peter Selinger 2001-2017
</metadata>
<g transform="translate(0.000000,512.000000) scale(0.100000,-0.100000)"
fill="#ecf0f1" stroke="none">
<path d="M2515 5107 c-28 -13 -45 -36 -59 -80 -8 -25 18 -83 46 -100 16 -11
74 -19 188 -26 495 -32 908 -185 1305 -484 111 -84 347 -322 433 -437 195
-262 328 -536 401 -826 44 -174 60 -279 72 -464 11 -183 20 -206 79 -226 64
-21 123 14 136 82 9 47 -10 316 -32 439 -73 430 -265 853 -539 1190 -98 121
-318 334 -437 423 -428 320 -913 495 -1438 517 -95 4 -132 2 -155 -8z"/>
<path d="M2405 4580 c-486 -38 -930 -244 -1276 -590 -387 -389 -591 -882 -591
-1430 0 -513 182 -984 526 -1365 l55 -61 -107 -118 -106 -119 -74 78 c-362
384 -578 895 -613 1455 -7 109 -15 172 -25 187 -45 71 -158 56 -185 -25 -13
-38 -7 -200 12 -355 63 -510 302 -1024 653 -1405 l86 -93 -183 -201 c-243
-268 -246 -272 -253 -307 -4 -17 -1 -45 6 -61 25 -60 24 -60 530 -60 l462 0
29 29 c54 54 36 146 -33 170 -20 7 -146 11 -341 11 l-309 0 80 87 c44 49 100
110 124 138 l46 50 93 -72 c268 -203 598 -362 919 -443 167 -42 274 -59 456
-72 183 -13 230 -6 259 38 20 30 22 82 6 113 -23 42 -51 50 -212 61 -175 11
-254 21 -389 51 -324 71 -630 213 -902 418 l-87 65 42 46 c23 25 72 78 108
117 l66 73 64 -49 c224 -169 484 -290 768 -356 273 -64 629 -64 902 0 284 66
537 184 768 357 l64 48 48 -52 c25 -29 161 -179 302 -333 l254 -280 -321 -5
c-176 -3 -329 -9 -338 -13 -41 -21 -63 -86 -44 -132 28 -67 12 -65 518 -65
315 0 465 3 482 11 13 6 32 26 41 44 36 66 36 66 -390 534 l-394 435 54 60
c226 250 389 553 469 875 78 309 78 673 0 982 -181 724 -750 1293 -1473 1473
-201 51 -445 72 -646 56z m265 -2020 l0 -1810 -110 0 -110 0 0 1810 0 1810
110 0 110 0 0 -1810z m-430 652 l0 -1129 -172 -6 c-196 -7 -287 -26 -407 -82
-152 -72 -271 -199 -326 -347 -16 -44 -20 -48 -52 -48 -80 0 -136 -67 -113
-136 17 -50 53 -74 111 -74 43 0 50 -3 63 -28 47 -91 187 -201 359 -281 l99
-47 -59 -32 -60 -31 -70 43 c-231 142 -454 365 -593 591 -259 421 -336 926
-215 1405 161 634 663 1139 1300 1305 50 13 100 24 113 24 l22 1 0 -1128z
m770 1104 c314 -80 599 -244 831 -477 344 -345 529 -792 529 -1279 0 -465
-166 -888 -487 -1238 l-58 -64 -130 37 c-72 21 -134 41 -139 46 -6 5 69 88
180 201 246 250 305 315 359 396 46 68 54 102 34 144 -9 20 -4 34 30 93 85
146 46 202 -184 260 -132 34 -235 41 -342 25 -66 -11 -89 -11 -102 -2 -9 7
-45 27 -81 44 -118 58 -226 48 -312 -30 -45 -40 -66 -76 -82 -140 -11 -44 -13
-45 -86 -73 -41 -16 -78 -29 -82 -29 -5 0 -8 475 -8 1055 0 998 1 1055 18
1055 9 0 60 -11 112 -24z m380 -2022 c19 -13 51 -36 70 -50 29 -22 42 -25 80
-20 33 4 41 3 27 -5 -9 -5 -24 -24 -33 -41 -35 -67 18 -148 96 -148 54 0 100
46 100 99 0 44 -29 87 -69 103 -25 11 -24 12 24 20 53 9 116 5 203 -14 l52
-11 -21 -36 c-31 -53 -39 -86 -28 -126 10 -34 8 -40 -28 -83 -21 -26 -139
-150 -263 -277 -124 -126 -241 -252 -260 -279 -19 -26 -46 -52 -59 -57 -28
-11 -376 -99 -391 -99 -7 0 -9 115 -8 366 l3 366 80 28 c44 15 97 35 119 44
53 22 63 21 103 -14 60 -53 142 -34 173 39 17 43 6 75 -45 130 -25 27 -45 55
-45 63 0 45 59 46 120 2z m-1150 -780 l0 -357 -77 5 c-55 4 -114 18 -202 47
-210 71 -359 157 -420 242 -28 38 -29 41 -17 87 35 132 144 240 297 293 49 17
98 24 209 29 80 4 160 7 178 8 l32 2 0 -356z m1312 -399 c55 -15 66 -21 57
-32 -13 -15 -152 -103 -163 -103 -7 0 -3 42 10 128 3 20 10 32 17 29 7 -2 42
-12 79 -22z m-313 -12 c0 -16 -6 -75 -12 -132 l-12 -104 -55 -19 c-64 -22
-242 -68 -265 -68 -13 0 -15 20 -15 133 l0 133 163 41 c200 51 197 50 196 16z
m-999 -240 c0 -74 -2 -83 -18 -83 -21 0 -268 66 -284 76 -5 4 25 26 69 50 75
43 80 44 155 42 l78 -3 0 -82z"/>
</g>
</svg>
